<svg width="31" height="31" viewBox="0 0 31 31" fill="none" xmlns="http://www.w3.org/2000/svg">
<path d="M3.25049 9.12543C3.25049 5.5977 6.11028 2.73792 9.638 2.73792H21.2021C24.7298 2.73792 27.5896 5.5977 27.5896 9.12543C27.5896 12.0347 25.6446 14.4897 22.984 15.2611C22.9667 15.2661 22.9547 15.282 22.9547 15.3C22.9547 15.3181 22.9667 15.3339 22.984 15.339C25.6446 16.1103 27.5896 18.5653 27.5896 21.4746C27.5896 25.0023 24.7298 27.8621 21.2021 27.8621H9.638C6.11028 27.8621 3.25049 25.0023 3.25049 21.4746C3.25049 18.5843 5.17014 16.1424 7.80401 15.3543C7.82801 15.3471 7.84463 15.3251 7.84463 15.3C7.84463 15.275 7.82801 15.2529 7.80401 15.2457C5.17014 14.4576 3.25049 12.0157 3.25049 9.12543Z" fill="#4971FE"/>
</svg>
