<svg data-v-9f17413b="" class="" viewBox="0 0 18 20" fill="none" xmlns="http://www.w3.org/2000/svg" style="width: 30px; height: 25px;"><path fill-rule="evenodd" clip-rule="evenodd" d="M9 0C13.95 0 18 4.04998 18 9V10.6527C18 15.6028 13.95 19.6527 9 19.6527C4.04998 19.6527 0 15.6028 0 10.6527V9C0 4.04998 4.04998 0 9 0ZM5.33085 13.8128V5.84073C5.33085 5.24655 5.81574 4.76166 6.40992 4.76166H9.70422C10.4562 4.76166 11.1134 4.91011 11.6774 5.20739C12.2413 5.50466 12.68 5.92242 12.9937 6.45841C13.307 6.99702 13.4625 7.62365 13.4625 8.34315C13.4625 9.06751 13.3021 9.69638 12.9799 10.2279C12.6595 10.7572 12.2093 11.1678 11.6311 11.4536C11.3685 11.5837 11.0869 11.6844 10.7855 11.7561C10.5364 11.815 10.2973 11.762 10.0962 11.6031C9.89519 11.4442 9.78888 11.2238 9.78888 10.9675V9.73443C9.78888 9.6643 9.82581 9.60463 9.8881 9.57292C10.113 9.45953 10.2857 9.29802 10.4077 9.09026C10.5323 8.87878 10.5934 8.63073 10.5934 8.34278C10.5934 8.05259 10.533 7.80418 10.4077 7.59754C10.2846 7.39314 10.1082 7.23312 9.8784 7.12383C9.65088 7.01231 9.37486 6.95673 9.05185 6.95673H8.08169V9.52033V9.74674V12.4248V12.6565V13.8113C8.08169 14.4054 7.59679 14.8903 7.00261 14.8903H6.40992C5.81574 14.8903 5.33085 14.4054 5.33085 13.8113V13.8128Z" fill="#FFB800"></path></svg>