<svg class="general-rating_positions-item-medal" viewBox="0 0 172 254" fill="none" xmlns="http://www.w3.org/2000/svg"><path d="M105.411 37.5128C116.067 29.1249 119.621 16.7581 116.067 0.406738H55.6459C47.8089 16.4069 49.818 29.2486 66.3015 37.5128H105.411Z" fill="#E95454"></path><path d="M80.0952 85.4935L55.6482 0.406738L9.2832 30.5018L31.426 105.754L80.0952 85.4935Z" fill="#ED6362"></path><path d="M140.286 105.754L162.429 30.5018L116.064 0.406738L91.6453 85.4935L140.286 105.754Z" fill="#ED6362"></path><path d="M85.8559 253.307C132.977 253.307 171.176 215.108 171.176 167.987C171.176 120.866 132.977 82.6646 85.8559 82.6646C57.7475 140.882 55.508 197.869 85.8559 253.307Z" fill="#FDBC4B"></path><path d="M85.8566 253.307C38.7357 253.307 0.536621 215.108 0.536621 167.987C0.536621 120.866 38.7357 82.6646 85.8566 82.6646V253.22" fill="#FFCC5B"></path><path d="M64.5056 224.704C64.1571 224.704 63.8031 224.639 63.4603 224.504C48.3649 218.522 36.5011 207.018 30.0578 192.114C23.6145 177.207 23.3588 160.684 29.3413 145.588C29.9201 144.127 31.5696 143.416 33.0336 143.992C34.492 144.571 35.2085 146.223 34.6297 147.685C29.2064 161.369 29.4368 176.347 35.2788 189.857C41.1208 203.37 51.8718 213.796 65.5537 219.216C67.0149 219.795 67.7286 221.447 67.1498 222.908C66.7086 224.024 65.638 224.704 64.5056 224.704Z" fill="#EC9922"></path><path d="M139.73 192.182C139.379 192.182 139.028 192.117 138.682 191.982C137.221 191.403 136.507 189.751 137.086 188.29C148.278 160.044 134.405 127.956 106.159 116.761C104.698 116.182 103.984 114.53 104.563 113.069C105.142 111.608 106.794 110.897 108.255 111.473C139.418 123.823 154.724 159.223 142.374 190.386C141.933 191.502 140.86 192.182 139.73 192.182Z" fill="#EC9922"></path></svg>