<svg class="general-rating_positions-item-medal" viewBox="0 0 171 253" fill="none" xmlns="http://www.w3.org/2000/svg"><path d="M104.875 37.106C115.53 28.7182 119.085 16.3514 115.53 0H55.1098C47.2727 16.0001 49.2819 28.8418 65.7653 37.106H104.875Z" fill="#E95454"></path><path d="M79.5596 85.0868L55.1126 0L8.74756 30.0951L30.8904 105.347L79.5596 85.0868Z" fill="#ED6362"></path><path d="M139.75 105.347L161.893 30.0951L115.528 0L91.1086 85.0868L139.75 105.347Z" fill="#ED6362"></path><path d="M85.3201 252.9C132.441 252.9 170.64 214.701 170.64 167.58C170.64 120.459 132.441 82.2573 85.3201 82.2573C57.2116 140.475 54.9721 197.462 85.3201 252.9Z" fill="#C0C0C0"></path><path d="M85.32 252.9C38.1991 252.9 0 214.701 0 167.58C0 120.459 38.1991 82.2573 85.32 82.2573V252.813" fill="#8D8880"></path><path d="M63.9697 224.297C63.6213 224.297 63.2672 224.233 62.9244 224.098C47.8291 218.115 35.9652 206.611 29.5219 191.707C23.0786 176.8 22.8229 160.277 28.8054 145.182C29.3842 143.72 31.0337 143.01 32.4977 143.586C33.9561 144.164 34.6726 145.817 34.0938 147.278C28.6705 160.963 28.9009 175.94 34.7429 189.45C40.5849 202.964 51.3359 213.389 65.0178 218.809C66.479 219.388 67.1928 221.04 66.6139 222.502C66.1727 223.617 65.1021 224.297 63.9697 224.297Z" fill="#4E4D4D"></path><path d="M139.193 191.774C138.842 191.774 138.491 191.709 138.145 191.574C136.684 190.996 135.97 189.343 136.549 187.882C147.741 159.636 133.868 127.549 105.622 116.354C104.161 115.775 103.447 114.122 104.026 112.661C104.605 111.2 106.257 110.489 107.719 111.065C138.881 123.415 154.188 158.815 141.838 189.978C141.396 191.094 140.323 191.774 139.193 191.774Z" fill="#4E4D4D"></path></svg>